<?xml version="1.0" encoding="utf-8"?>

<!DOCTYPE svg PUBLIC "-//W3C//DTD SVG 1.1//EN" "http://www.w3.org/Graphics/SVG/1.1/DTD/svg11.dtd">
<!-- Uploaded to: SVG Repo, www.svgrepo.com, Generator: SVG Repo Mixer Tools -->
<svg height="800px" width="800px" version="1.1" id="_x32_" xmlns="http://www.w3.org/2000/svg" xmlns:xlink="http://www.w3.org/1999/xlink" 
	 viewBox="0 0 512 512"  xml:space="preserve">
<style type="text/css">
	.st0{fill:#ffffff;}
</style>
<g>
	<path class="st0" d="M455.209,199.201c-26.516,0-37.773,21.462-47.26,13.648c-8.138-6.702-7.665-10.03-5.054-26.726l10.766-82.518
		c3.74-17.94-10.556-28.803-22.767-28.444c0,0-77.78,2.68-89.202,2.68c-11.424,0-18.291,6.85-13.718,15.996
		c4.581,9.137,23.669,22.881,25.132,43.388c2.286,31.983-25.132,59.402-57.106,59.402c-31.973,0-59.392-27.418-57.106-59.402
		c1.463-20.507,20.55-34.251,25.132-43.388c4.572-9.145-2.296-15.996-13.718-15.996c-11.424,0-89.203-2.68-89.203-2.68
		c-12.211-0.36-26.507,10.503-22.767,28.444l10.766,82.518c2.611,16.705,3.084,20.034-5.054,26.726
		c-9.488,7.814-20.744-13.648-47.26-13.648C25.438,199.201,0,224.639,0,256c0,31.36,25.438,56.8,56.79,56.8
		c26.517,0,37.773-21.462,47.26-13.648c8.138,6.702,7.665,10.03,5.054,26.727l-10.766,82.518
		c-3.74,17.94,10.556,28.802,22.767,28.443c0,0,77.78-2.68,89.203-2.68c11.422,0,18.29-6.851,13.718-15.996
		c-4.582-9.137-23.67-22.881-25.132-43.389c-2.287-31.982,25.132-59.4,57.106-59.4c31.974,0,59.392,27.418,57.106,59.4
		c-1.463,20.508-20.551,34.252-25.132,43.389c-4.573,9.145,2.295,15.996,13.718,15.996c11.422,0,89.202,2.68,89.202,2.68
		c12.211,0.359,26.508-10.503,22.767-28.443l-10.766-82.518c-2.61-16.705-3.084-20.034,5.054-26.727
		c9.487-7.814,20.744,13.648,47.26,13.648C486.561,312.8,512,287.36,512,256C512,224.639,486.561,199.201,455.209,199.201z"/>
</g>
</svg>
